<svg width="16" height="8" viewBox="0 0 16 8" fill="none" xmlns="http://www.w3.org/2000/svg">
<path d="M8.77311 4.07417C8.77311 4.07417 8.83108 3.0063 9.5788 2.2158C10.3266 1.42555 10.3879 0.444196 9.93088 0.261655C9.34555 0.0271174 8.36806 1.20153 8.77311 4.07417Z" fill="#5CC6D0" stroke="#5CC6D0" stroke-width="0.00762" stroke-miterlimit="22.9256"/>
<path d="M7.70966 6.94587C7.70966 6.94587 7.34241 5.00823 5.80042 3.77695C4.25882 2.54629 3.90621 0.76736 4.6842 0.300895C5.68066 -0.29679 7.73051 1.57065 7.70966 6.94587Z" fill="url(#paint0_linear_294_128)"/>
<path d="M6.34419 6.194C6.34419 6.194 7.11195 4.51833 8.80292 3.15621C10.494 1.79425 10.1786 0.679314 8.97602 0.294901C7.68695 -0.116987 4.99442 0.523656 6.34419 6.194Z" fill="url(#paint1_linear_294_128)" stroke="#FFF212" stroke-width="0.00762" stroke-miterlimit="22.9256"/>
<path d="M8.36121 2.75273C8.36121 2.75273 10.6029 2.36766 11.85 4.43589C13.097 6.504 14.5402 6.56894 15.3097 5.54337C16.1345 4.44402 14.9582 0.384735 8.36121 2.75273Z" fill="url(#paint2_linear_294_128)"/>
<path d="M7.31895 5.76589C7.31895 5.76589 6.22357 3.50895 3.9666 3.90346C1.70958 4.29807 0.778415 3.07133 1.04734 1.65079C1.33565 0.128092 4.98687 -1.76833 7.31895 5.76589Z" fill="url(#paint3_linear_294_128)" stroke="#00AFEF" stroke-width="0.00762" stroke-miterlimit="22.9256"/>
<path d="M6.83154 5.07899C6.83154 5.07899 8.09148 3.57559 10.2612 3.87318C12.4307 4.17103 13.603 2.80577 12.9995 1.61404C12.2266 0.0877696 9.23751 -0.0873879 6.83154 5.07899V5.07899Z" fill="url(#paint4_linear_294_128)" stroke="#ED3237" stroke-width="0.00762" stroke-miterlimit="22.9256"/>
<path fill-rule="evenodd" clip-rule="evenodd" d="M11.653 4.16837L15.6709 3.84499L15.7946 6.06229L11.7767 6.38568L11.653 4.16837Z" fill="url(#paint5_linear_294_128)"/>
<path fill-rule="evenodd" clip-rule="evenodd" d="M1 3.19493L11.5358 2.34692L11.7612 6.38774L1.22544 7.23572L1 3.19493Z" fill="url(#paint6_linear_294_128)" stroke="#EC268F" stroke-width="0.02" stroke-miterlimit="22.9256"/>
<path d="M4.18486 3.7779L3.46593 3.83674L3.59923 5.79405L3.11564 5.83362L2.98234 3.87631L2.27308 3.93435L2.24637 3.54224L4.15816 3.3858L4.18486 3.7779ZM5.49086 5.46076C5.3854 5.61002 5.23112 5.69296 5.02801 5.70958C4.84102 5.72488 4.69443 5.68279 4.58824 5.58331C4.48312 5.48373 4.42242 5.33023 4.40613 5.12279L4.32822 3.97873L4.79407 3.94061L4.87089 5.06853C4.88327 5.25033 4.97221 5.33446 5.1377 5.32091C5.29567 5.30799 5.40047 5.24424 5.45211 5.12968L5.36793 3.89365L5.8354 3.8554L5.9543 5.60133L5.51585 5.63721L5.49086 5.46076ZM6.17284 4.69263C6.15431 4.42047 6.20026 4.19874 6.31071 4.02744C6.42223 3.85606 6.58384 3.7617 6.79554 3.74438C6.96534 3.73048 7.1099 3.78247 7.22923 3.90035L7.16857 3.00964L7.63604 2.97139L7.80483 5.4499L7.38411 5.48432L7.34891 5.3006C7.24274 5.45533 7.09831 5.54016 6.91562 5.55511C6.71036 5.57191 6.53991 5.50473 6.40426 5.35357C6.26962 5.20124 6.19248 4.98093 6.17284 4.69263ZM6.64101 4.6884C6.65214 4.85191 6.68915 4.9749 6.75204 5.05738C6.81494 5.13985 6.90065 5.17665 7.00919 5.16777C7.15319 5.15598 7.2506 5.08689 7.30143 4.9605L7.25451 4.27148C7.1882 4.15467 7.08358 4.10212 6.94065 4.11381C6.71605 4.13219 6.61617 4.32372 6.64101 4.6884ZM8.03283 4.53718C8.02103 4.36399 8.04383 4.20689 8.10123 4.0659C8.15863 3.9249 8.24713 3.81219 8.36673 3.72776C8.48741 3.64325 8.63049 3.59422 8.79599 3.58068C9.03134 3.56142 9.22807 3.61779 9.38619 3.74981C9.54538 3.88173 9.642 4.0707 9.67604 4.31672L9.6874 4.43586C9.70564 4.70372 9.6456 4.92498 9.50729 5.09964C9.3689 5.27323 9.17398 5.37031 8.92251 5.39089C8.67104 5.41146 8.46459 5.34723 8.30315 5.19818C8.14279 5.04904 8.05316 4.8357 8.03425 4.55816L8.03283 4.53718ZM8.50099 4.53295C8.51227 4.69861 8.55208 4.823 8.62042 4.90611C8.68868 4.98814 8.78084 5.02441 8.89691 5.01491C9.00974 5.00568 9.09493 4.95544 9.15248 4.86419C9.20995 4.77187 9.2322 4.6305 9.21923 4.4401C9.20817 4.27766 9.16789 4.15439 9.09841 4.07029C9.02893 3.9862 8.93669 3.94885 8.8217 3.95826C8.70779 3.96758 8.62271 4.01944 8.56646 4.11382C8.51014 4.20714 8.48832 4.34684 8.50099 4.53295Z" fill="#FEF9FB"/>
<path d="M4.58737 6.38255C4.58708 6.45179 4.56531 6.50805 4.52207 6.55135C4.47912 6.59463 4.42019 6.61933 4.34528 6.62546C4.26336 6.63217 4.19696 6.60992 4.14611 6.55871C4.09552 6.50718 4.06695 6.43323 4.06038 6.33687L4.05772 6.29777C4.05353 6.23626 4.06067 6.18119 4.07913 6.13256C4.09759 6.08392 4.12601 6.04551 4.16441 6.01734C4.20307 5.98884 4.24903 5.97242 4.30228 5.96806C4.37601 5.96203 4.43676 5.97694 4.48451 6.01279C4.53226 6.04864 4.56208 6.10202 4.57397 6.17291L4.4423 6.18368C4.43627 6.14265 4.42268 6.11372 4.40153 6.0969C4.38065 6.07975 4.35002 6.07284 4.30964 6.07614C4.26575 6.07973 4.23391 6.09824 4.21412 6.13167C4.1946 6.16478 4.1868 6.21446 4.19073 6.2807L4.19402 6.32903C4.19872 6.39815 4.21255 6.44783 4.2355 6.47805C4.25874 6.50825 4.29289 6.52151 4.33795 6.51782C4.37862 6.5145 4.40828 6.50279 4.42692 6.48271C4.44583 6.46231 4.45542 6.43252 4.4557 6.39332L4.58737 6.38255ZM4.64376 6.34877C4.64055 6.30162 4.64676 6.25885 4.66239 6.22046C4.67802 6.18207 4.70211 6.15138 4.73468 6.12839C4.76753 6.10538 4.80649 6.09203 4.85155 6.08834C4.91563 6.0831 4.9692 6.09845 5.01225 6.13439C5.05559 6.17031 5.0819 6.22177 5.09117 6.28875L5.09426 6.32119C5.09923 6.39412 5.08288 6.45436 5.04522 6.50192C5.00754 6.54918 4.95447 6.57561 4.886 6.58122C4.81753 6.58682 4.76132 6.56933 4.71737 6.52875C4.6737 6.48814 4.6493 6.43005 4.64415 6.35449L4.64376 6.34877ZM4.77123 6.34762C4.7743 6.39273 4.78514 6.42659 4.80375 6.44922C4.82234 6.47156 4.84743 6.48143 4.87903 6.47885C4.90975 6.47633 4.93295 6.46266 4.94861 6.43781C4.96426 6.41267 4.97032 6.37418 4.96679 6.32234C4.96378 6.27811 4.95281 6.24455 4.93389 6.22165C4.91498 6.19876 4.88986 6.18859 4.85855 6.19115C4.82754 6.19369 4.80437 6.20781 4.78906 6.23351C4.77372 6.25891 4.76778 6.29695 4.77123 6.34762ZM5.59984 6.27937C5.60482 6.3526 5.59214 6.41269 5.5618 6.45964C5.53173 6.50629 5.48846 6.53192 5.43199 6.53654C5.384 6.54046 5.34409 6.52694 5.31227 6.49597L5.32753 6.72003L5.20069 6.73041L5.15587 6.07228L5.27349 6.06265L5.28105 6.10886C5.30926 6.06944 5.34809 6.04771 5.39754 6.04366C5.45606 6.03888 5.50303 6.05683 5.53846 6.09752C5.57389 6.13821 5.5942 6.19663 5.59939 6.27278L5.59984 6.27937ZM5.47237 6.28053C5.46936 6.2363 5.45913 6.20282 5.4417 6.1801C5.42455 6.15735 5.40106 6.1472 5.37121 6.14964C5.33142 6.1529 5.3051 6.17037 5.29225 6.20205L5.30551 6.39668C5.32315 6.42675 5.35187 6.44016 5.39166 6.4369C5.45223 6.43194 5.47913 6.37982 5.47237 6.28053ZM5.82859 6.49525L5.70131 6.50566L5.66893 6.03029L5.79621 6.01988L5.82859 6.49525ZM5.6531 5.90789C5.6518 5.88885 5.65702 5.87266 5.66877 5.85933C5.6808 5.84598 5.69779 5.8384 5.71974 5.83661C5.74139 5.83483 5.75907 5.83957 5.77278 5.85082C5.7865 5.86207 5.794 5.87721 5.7953 5.89625C5.79661 5.91558 5.79111 5.93194 5.77878 5.94531C5.76674 5.95867 5.75004 5.96622 5.72868 5.96797C5.70732 5.96972 5.68964 5.96498 5.67564 5.95375C5.66193 5.94251 5.65441 5.92722 5.6531 5.90789ZM6.20867 6.46414C6.20204 6.4532 6.19683 6.43934 6.19304 6.42257C6.16465 6.45935 6.12588 6.47975 6.07672 6.48378C6.0302 6.48758 5.99066 6.47727 5.9581 6.45284C5.92584 6.42838 5.90831 6.39565 5.90551 6.35465C5.90208 6.30427 5.91803 6.26409 5.95336 6.2341C5.98897 6.20409 6.04203 6.18605 6.11253 6.17999L6.1709 6.17521L6.16904 6.14797C6.16755 6.126 6.16064 6.1089 6.14834 6.09665C6.13632 6.08438 6.11817 6.07924 6.09388 6.08122C6.07252 6.08297 6.05605 6.08948 6.04446 6.10073C6.03316 6.11197 6.02812 6.12652 6.02934 6.14438L5.90249 6.15476C5.90062 6.12723 5.90737 6.10105 5.92274 6.07623C5.93812 6.05141 5.96087 6.03114 5.99098 6.01542C6.02108 5.99941 6.05544 5.98983 6.09406 5.98667C6.15258 5.98188 6.19997 5.99287 6.23622 6.01966C6.27274 6.04612 6.29281 6.08601 6.29644 6.13931L6.31047 6.34536C6.31384 6.39045 6.32245 6.42405 6.33632 6.44619L6.33683 6.45366L6.20867 6.46414ZM6.09776 6.38442C6.11649 6.38289 6.13347 6.37737 6.14871 6.36788C6.16393 6.35809 6.17487 6.34586 6.18152 6.33118L6.17595 6.24946L6.12855 6.25334C6.06506 6.25853 6.03276 6.28327 6.03166 6.32754L6.03173 6.33504C6.0328 6.35086 6.03925 6.36344 6.05107 6.37278C6.06288 6.38212 6.07845 6.386 6.09776 6.38442ZM6.37921 6.20764C6.37417 6.13354 6.38668 6.07317 6.41675 6.02653C6.44711 5.97987 6.49112 5.95418 6.54876 5.94946C6.59499 5.94568 6.63435 5.95983 6.66684 5.99193L6.65032 5.74941L6.7776 5.73899L6.82356 6.41383L6.70901 6.4232L6.69942 6.37318C6.67052 6.4153 6.63119 6.4384 6.58145 6.44247C6.52557 6.44705 6.47916 6.42876 6.44222 6.3876C6.40556 6.34612 6.38456 6.28614 6.37921 6.20764ZM6.50668 6.20649C6.50971 6.25101 6.51979 6.2845 6.53691 6.30695C6.55404 6.32941 6.57738 6.33943 6.60693 6.33701C6.64614 6.3338 6.67266 6.31499 6.6865 6.28058L6.67372 6.09298C6.65567 6.06117 6.62718 6.04686 6.58827 6.05005C6.52712 6.05505 6.49992 6.1072 6.50668 6.20649ZM6.88564 6.16532C6.88243 6.11816 6.88863 6.07539 6.90426 6.037C6.91989 5.99861 6.94399 5.96792 6.97655 5.94493C7.00941 5.92192 7.04837 5.90857 7.09343 5.90489C7.15751 5.89964 7.21107 5.91499 7.25412 5.95094C7.29746 5.98686 7.32377 6.03831 7.33304 6.10529L7.33613 6.13773C7.3411 6.21066 7.32475 6.27091 7.28709 6.31846C7.24942 6.36572 7.19634 6.39216 7.12787 6.39776C7.05941 6.40336 7.0032 6.38587 6.95924 6.34529C6.91558 6.30468 6.89117 6.2466 6.88603 6.17103L6.88564 6.16532ZM7.01311 6.16417C7.01618 6.20927 7.02702 6.24314 7.04562 6.26577C7.06421 6.2881 7.0893 6.29798 7.1209 6.29539C7.15163 6.29288 7.17482 6.2792 7.19049 6.25435C7.20614 6.22922 7.21219 6.19073 7.20866 6.13888C7.20565 6.09466 7.19469 6.06109 7.17577 6.0382C7.15685 6.0153 7.13174 6.00513 7.10043 6.00769C7.06941 6.01023 7.04625 6.02435 7.03093 6.05005C7.0156 6.07546 7.00966 6.11349 7.01311 6.16417ZM7.6727 5.98605C7.65527 5.98512 7.63998 5.98519 7.62681 5.98627C7.57883 5.99019 7.54848 6.00902 7.53577 6.04276L7.55695 6.35381L7.43011 6.36419L7.39774 5.88882L7.51756 5.87902L7.52493 5.9354C7.54741 5.88968 7.58118 5.86497 7.62624 5.86129C7.64029 5.86014 7.65359 5.86096 7.66613 5.86376L7.6727 5.98605ZM8.02043 6.31588C8.0138 6.30494 8.00859 6.29108 8.0048 6.27431C7.97641 6.31109 7.93764 6.3315 7.88848 6.33552C7.84196 6.33932 7.80242 6.32901 7.76986 6.30458C7.73759 6.28012 7.72006 6.24739 7.71727 6.20639C7.71384 6.15601 7.72979 6.11583 7.76511 6.08584C7.80073 6.05583 7.85379 6.03779 7.92428 6.03173L7.98265 6.02695L7.9808 5.99971C7.9793 5.97774 7.9724 5.96064 7.96009 5.94839C7.94808 5.93612 7.92993 5.93098 7.90564 5.93297C7.88428 5.93471 7.86781 5.94122 7.85621 5.95247C7.84492 5.96371 7.83988 5.97826 7.84109 5.99612L7.71425 6.0065C7.71238 5.97897 7.71913 5.95279 7.7345 5.92797C7.74988 5.90315 7.77262 5.88288 7.80274 5.86717C7.83284 5.85115 7.8672 5.84157 7.90582 5.83841C7.96434 5.83362 8.01172 5.84461 8.04797 5.8714C8.08449 5.89786 8.10457 5.93775 8.1082 5.99105L8.12223 6.19711C8.1256 6.24219 8.13421 6.27579 8.14808 6.29793L8.14858 6.3054L8.02043 6.31588ZM7.90952 6.23616C7.92824 6.23463 7.94523 6.22911 7.96047 6.21962C7.97569 6.20983 7.98663 6.1976 7.99328 6.18292L7.98771 6.1012L7.94031 6.10508C7.87682 6.11027 7.84452 6.13501 7.84341 6.17928L7.84348 6.18678C7.84456 6.2026 7.85101 6.21518 7.86282 6.22452C7.87464 6.23386 7.89021 6.23774 7.90952 6.23616Z" fill="#FEF9FB"/>
<path d="M12.8149 4.57224L12.5138 4.59688L12.5697 5.41647L12.3672 5.43304L12.3113 4.61345L12.0143 4.63775L12.0032 4.47356L12.8037 4.40805L12.8149 4.57224ZM13.3618 5.27692C13.3176 5.33942 13.253 5.37414 13.1679 5.3811C13.0896 5.38751 13.0283 5.36989 12.9838 5.32823C12.9398 5.28653 12.9144 5.22226 12.9075 5.13539L12.8749 4.65634L13.07 4.64037L13.1021 5.11267C13.1073 5.1888 13.1446 5.22403 13.2139 5.21836C13.28 5.21294 13.3239 5.18625 13.3455 5.13828L13.3103 4.62071L13.506 4.60469L13.5558 5.33577L13.3722 5.3508L13.3618 5.27692ZM13.6473 4.95527C13.6396 4.84131 13.6588 4.74846 13.7051 4.67673C13.7517 4.60497 13.8194 4.56546 13.9081 4.5582C13.9792 4.55238 14.0397 4.57415 14.0897 4.62352L14.0643 4.25054L14.26 4.23452L14.3307 5.27236L14.1545 5.28678L14.1398 5.20985C14.0953 5.27464 14.0348 5.31016 13.9583 5.31642C13.8724 5.32346 13.801 5.29533 13.7442 5.23203C13.6878 5.16825 13.6555 5.07599 13.6473 4.95527ZM13.8434 4.9535C13.848 5.02197 13.8635 5.07347 13.8899 5.108C13.9162 5.14254 13.9521 5.15795 13.9975 5.15423C14.0578 5.14929 14.0986 5.12036 14.1199 5.06744L14.1003 4.77892C14.0725 4.73001 14.0287 4.708 13.9688 4.7129C13.8748 4.72059 13.833 4.80079 13.8434 4.9535ZM14.4262 4.89018C14.4212 4.81766 14.4308 4.75187 14.4548 4.69283C14.4788 4.63379 14.5159 4.5866 14.566 4.55124C14.6165 4.51586 14.6764 4.49533 14.7457 4.48965C14.8443 4.48159 14.9267 4.5052 14.9929 4.56048C15.0595 4.61572 15.1 4.69485 15.1142 4.79786L15.119 4.84775C15.1266 4.95991 15.1015 5.05256 15.0436 5.1257C14.9856 5.19839 14.904 5.23904 14.7987 5.24766C14.6934 5.25627 14.607 5.22937 14.5394 5.16696C14.4722 5.10451 14.4347 5.01518 14.4268 4.89896L14.4262 4.89018ZM14.6222 4.8884C14.6269 4.95777 14.6436 5.00986 14.6722 5.04466C14.7008 5.07901 14.7394 5.0942 14.788 5.09022C14.8352 5.08636 14.8709 5.06532 14.895 5.02711C14.9191 4.98845 14.9284 4.92926 14.923 4.84953C14.9183 4.78151 14.9015 4.72989 14.8724 4.69468C14.8433 4.65946 14.8046 4.64382 14.7565 4.64776C14.7088 4.65167 14.6732 4.67338 14.6496 4.7129C14.626 4.75198 14.6169 4.81048 14.6222 4.8884Z" fill="#FFFBFB"/>
<defs>
<linearGradient id="paint0_linear_294_128" x1="5.5894" y1="2.10463" x2="6.65981" y2="4.934" gradientUnits="userSpaceOnUse">
<stop stop-color="#D2D3D5"/>
<stop offset="1" stop-color="#FEF9FB"/>
</linearGradient>
<linearGradient id="paint1_linear_294_128" x1="7.94731" y1="1.32194" x2="7.97603" y2="5.0632" gradientUnits="userSpaceOnUse">
<stop stop-color="#FFF212"/>
<stop offset="0.678431" stop-color="#D0933D"/>
<stop offset="1" stop-color="#A13469"/>
</linearGradient>
<linearGradient id="paint2_linear_294_128" x1="13.2615" y1="4.44383" x2="10.6052" y2="3.94231" gradientUnits="userSpaceOnUse">
<stop stop-color="#90C74A"/>
<stop offset="1" stop-color="#22984F"/>
</linearGradient>
<linearGradient id="paint3_linear_294_128" x1="1.37851" y1="2.24061" x2="6.34587" y2="5.89062" gradientUnits="userSpaceOnUse">
<stop stop-color="#00AFEF"/>
<stop offset="0.54902" stop-color="#607196"/>
<stop offset="1" stop-color="#C0333D"/>
</linearGradient>
<linearGradient id="paint4_linear_294_128" x1="10.9098" y1="2.02506" x2="8.8655" y2="3.4211" gradientUnits="userSpaceOnUse">
<stop stop-color="#ED3237"/>
<stop offset="0.65098" stop-color="#F46F34"/>
<stop offset="1" stop-color="#FBAD30"/>
</linearGradient>
<linearGradient id="paint5_linear_294_128" x1="11.7142" y1="5.26533" x2="15.7363" y2="5.04056" gradientUnits="userSpaceOnUse">
<stop stop-color="#5CC6D0"/>
<stop offset="1" stop-color="#4669B0"/>
</linearGradient>
<linearGradient id="paint6_linear_294_128" x1="1.11043" y1="5.18993" x2="11.6613" y2="4.60024" gradientUnits="userSpaceOnUse">
<stop stop-color="#EC268F"/>
<stop offset="1" stop-color="#EC268D"/>
</linearGradient>
</defs>
</svg>
